<svg width="359" height="486" viewBox="0 0 359 486" fill="none" xmlns="http://www.w3.org/2000/svg">
<g clip-path="url(#paint0_diamond_182_1654_clip_path)" data-figma-skip-parse="true"><g transform="matrix(0.0009569 0.278615 -0.205808 0.000658646 179.5 243)"><rect x="0" y="0" width="875.251" height="877.608" fill="url(#paint0_diamond_182_1654)" opacity="1" shape-rendering="crispEdges"/><rect x="0" y="0" width="875.251" height="877.608" transform="scale(1 -1)" fill="url(#paint0_diamond_182_1654)" opacity="1" shape-rendering="crispEdges"/><rect x="0" y="0" width="875.251" height="877.608" transform="scale(-1 1)" fill="url(#paint0_diamond_182_1654)" opacity="1" shape-rendering="crispEdges"/><rect x="0" y="0" width="875.251" height="877.608" transform="scale(-1)" fill="url(#paint0_diamond_182_1654)" opacity="1" shape-rendering="crispEdges"/></g></g><path d="M268.956 0.353946C270.166 0.167864 271.463 0.220519 272.691 0.200118C287.742 -0.04744 302.835 0.188818 317.888 0.191575C324.682 0.192678 337.725 -0.50203 343.726 0.747616C346.616 1.34942 349.977 3.57083 352.048 5.57142C354.561 8.00097 355.815 11.582 356.12 14.9555C356.883 23.3645 356.023 31.9099 356.331 40.3454C356.534 45.8534 357.068 51.3311 357.197 56.8518C357.494 69.7924 357.245 82.7768 357.222 95.7224L357.202 165.79L358.802 436.633C358.81 445.512 359.73 463.779 357.534 471.338C356.62 474.475 354.975 477.367 352.562 479.663C348.366 483.655 342.409 484.777 336.734 485.306C327.735 486.147 318.24 485.593 309.189 485.593L257.361 485.565L95.5802 485.96L43.5393 485.984H28.061C24.4902 485.984 20.8855 486.106 17.3357 485.673C13.86 485.248 10.5572 484.394 7.72389 482.318C3.54572 479.255 1.50347 474.006 0.90716 469.102C-0.2589 459.511 0.136072 449.562 0.130645 439.913L0.123507 396.646L0.555604 252.684L0.615575 86.4513C0.602723 81.9523 0.213755 77.4882 0.133504 72.9974C-0.0461313 62.9468 0.0763834 52.8741 0.0715284 42.8212C0.0678157 35.102 -0.119245 27.3326 0.126933 19.6186C0.267442 15.2193 0.669269 11.0442 3.62454 7.47001C6.66892 3.78806 10.8468 1.82193 15.6256 1.0958C21.7266 0.168969 28.4756 0.754234 34.6558 0.768018L69.3628 0.805784L205.378 0.823977L245.537 0.800546C253.062 0.794757 261.07 1.28546 268.527 0.406325L268.956 0.353946Z" data-figma-gradient-fill="{&#34;type&#34;:&#34;GRADIENT_DIAMOND&#34;,&#34;stops&#34;:[{&#34;color&#34;:{&#34;r&#34;:0.94901961088180542,&#34;g&#34;:0.95294117927551270,&#34;b&#34;:0.95294117927551270,&#34;a&#34;:1.0},&#34;position&#34;:0.0},{&#34;color&#34;:{&#34;r&#34;:0.64373511075973511,&#34;g&#34;:0.68355619907379150,&#34;b&#34;:0.68355619907379150,&#34;a&#34;:1.0},&#34;position&#34;:1.0}],&#34;stopsVar&#34;:[{&#34;color&#34;:{&#34;r&#34;:0.94901961088180542,&#34;g&#34;:0.95294117927551270,&#34;b&#34;:0.95294117927551270,&#34;a&#34;:1.0},&#34;position&#34;:0.0},{&#34;color&#34;:{&#34;r&#34;:0.64373511075973511,&#34;g&#34;:0.68355619907379150,&#34;b&#34;:0.68355619907379150,&#34;a&#34;:1.0},&#34;position&#34;:1.0}],&#34;transform&#34;:{&#34;m00&#34;:1.9138001203536987,&#34;m01&#34;:-411.61614990234375,&#34;m02&#34;:384.35113525390625,&#34;m10&#34;:557.22967529296875,&#34;m11&#34;:1.3172923326492310,&#34;m12&#34;:-36.273506164550781},&#34;opacity&#34;:1.0,&#34;blendMode&#34;:&#34;NORMAL&#34;,&#34;visible&#34;:true}"/>
<defs>
<clipPath id="paint0_diamond_182_1654_clip_path"><path d="M268.956 0.353946C270.166 0.167864 271.463 0.220519 272.691 0.200118C287.742 -0.04744 302.835 0.188818 317.888 0.191575C324.682 0.192678 337.725 -0.50203 343.726 0.747616C346.616 1.34942 349.977 3.57083 352.048 5.57142C354.561 8.00097 355.815 11.582 356.12 14.9555C356.883 23.3645 356.023 31.9099 356.331 40.3454C356.534 45.8534 357.068 51.3311 357.197 56.8518C357.494 69.7924 357.245 82.7768 357.222 95.7224L357.202 165.79L358.802 436.633C358.81 445.512 359.73 463.779 357.534 471.338C356.62 474.475 354.975 477.367 352.562 479.663C348.366 483.655 342.409 484.777 336.734 485.306C327.735 486.147 318.24 485.593 309.189 485.593L257.361 485.565L95.5802 485.96L43.5393 485.984H28.061C24.4902 485.984 20.8855 486.106 17.3357 485.673C13.86 485.248 10.5572 484.394 7.72389 482.318C3.54572 479.255 1.50347 474.006 0.90716 469.102C-0.2589 459.511 0.136072 449.562 0.130645 439.913L0.123507 396.646L0.555604 252.684L0.615575 86.4513C0.602723 81.9523 0.213755 77.4882 0.133504 72.9974C-0.0461313 62.9468 0.0763834 52.8741 0.0715284 42.8212C0.0678157 35.102 -0.119245 27.3326 0.126933 19.6186C0.267442 15.2193 0.669269 11.0442 3.62454 7.47001C6.66892 3.78806 10.8468 1.82193 15.6256 1.0958C21.7266 0.168969 28.4756 0.754234 34.6558 0.768018L69.3628 0.805784L205.378 0.823977L245.537 0.800546C253.062 0.794757 261.07 1.28546 268.527 0.406325L268.956 0.353946Z"/></clipPath><linearGradient id="paint0_diamond_182_1654" x1="0" y1="0" x2="500" y2="500" gradientUnits="userSpaceOnUse">
<stop stop-color="#F2F3F3"/>
<stop offset="1" stop-color="#A4AEAE"/>
</linearGradient>
</defs>
</svg>
